<?xml version="1.0" encoding="utf-8"?>
<!-- Generator: Adobe Illustrator 16.0.0, SVG Export Plug-In . SVG Version: 6.00 Build 0)  -->
<!DOCTYPE svg PUBLIC "-//W3C//DTD SVG 1.1//EN" "http://www.w3.org/Graphics/SVG/1.1/DTD/svg11.dtd">
<svg version="1.1" id="图层_1" xmlns="http://www.w3.org/2000/svg" xmlns:xlink="http://www.w3.org/1999/xlink" x="0px" y="0px"
	 width="30px" height="30px" viewBox="0 0 30 30" enable-background="new 0 0 30 30" xml:space="preserve">
<polygon fill="none" stroke="#3095D3" stroke-width="2" stroke-miterlimit="10" points="26.723,8.387 14.667,1.778 2.562,8.387 
	2.562,21.493 14.667,28.223 26.723,21.493 "/>
<path fill="none" stroke="#551414" stroke-width="6" stroke-miterlimit="10" d="M14.667,14.945"/>
<path fill="none" stroke="#3095D3" stroke-width="2" stroke-miterlimit="10" d="M14.667,14.945L2.562,8.387L14.667,14.945z"/>
<path fill="none" stroke="#551414" stroke-width="6" stroke-miterlimit="10" d="M14.667,14.945"/>
<path fill="none" stroke="#3095D3" stroke-width="2" stroke-miterlimit="10" d="M14.667,14.945l12.056-6.558L14.667,14.945z"/>
<line fill="none" stroke="#3095D3" stroke-width="2" stroke-miterlimit="10" x1="14.667" y1="28.223" x2="14.667" y2="14.945"/>
<path fill="#2C2C2D" d="M18.05,6.387c0.116,0.21,0.062,0.465-0.12,0.567l-5.959,3.354c-0.183,0.103-0.425,0.016-0.542-0.195l0,0
	c-0.116-0.21-0.062-0.464,0.121-0.567l5.959-3.354C17.691,6.089,17.934,6.176,18.05,6.387L18.05,6.387z"/>
<path fill="#2C2C2D" d="M20.534,7.723c0.116,0.211,0.062,0.465-0.12,0.568l-5.96,3.354c-0.183,0.103-0.425,0.016-0.542-0.195l0,0
	c-0.115-0.211-0.062-0.465,0.121-0.568l5.959-3.354C20.176,7.425,20.418,7.512,20.534,7.723L20.534,7.723z"/>
<path fill="#2C2C2D" d="M15.683,5.055c0.116,0.211,0.062,0.465-0.12,0.568l-5.96,3.354C9.42,9.08,9.177,8.992,9.061,8.782l0,0
	C8.945,8.571,8.999,8.317,9.182,8.214l5.959-3.354C15.324,4.758,15.566,4.845,15.683,5.055L15.683,5.055z"/>
<path fill="#2C2C2D" d="M23.916,13.481c0.115,0.211,0.062,0.465-0.121,0.568l-5.959,3.354c-0.184,0.103-0.426,0.016-0.542-0.195l0,0
	c-0.116-0.211-0.062-0.465,0.12-0.567l5.959-3.354C23.557,13.183,23.799,13.271,23.916,13.481L23.916,13.481z"/>
<path fill="#2C2C2D" d="M23.916,16.342c0.115,0.21,0.062,0.464-0.121,0.566l-5.959,3.354c-0.184,0.104-0.426,0.016-0.542-0.194l0,0
	c-0.116-0.211-0.062-0.465,0.12-0.567l5.96-3.354C23.557,16.043,23.799,16.131,23.916,16.342L23.916,16.342z"/>
<path fill="#2C2C2D" d="M23.916,19.206c0.115,0.211,0.062,0.465-0.121,0.567l-5.959,3.354c-0.184,0.104-0.426,0.016-0.542-0.195l0,0
	c-0.116-0.21-0.062-0.464,0.12-0.566l5.96-3.354C23.557,18.908,23.799,18.996,23.916,19.206L23.916,19.206z"/>
<path fill="#2C2C2D" d="M11.874,20.217c-0.123,0.207-0.367,0.289-0.547,0.18L5.46,16.881c-0.18-0.107-0.228-0.363-0.105-0.57l0,0
	c0.122-0.208,0.366-0.288,0.546-0.181l5.867,3.517C11.948,19.754,11.995,20.01,11.874,20.217L11.874,20.217z"/>
<path fill="#2C2C2D" d="M11.874,23.057c-0.122,0.207-0.367,0.289-0.547,0.181L5.46,19.721c-0.18-0.107-0.228-0.363-0.105-0.57l0,0
	c0.122-0.207,0.366-0.289,0.546-0.18l5.867,3.516C11.948,22.594,11.995,22.85,11.874,23.057L11.874,23.057z"/>
<path fill="#2C2C2D" d="M11.904,17.481c-0.122,0.208-0.367,0.288-0.546,0.181l-5.867-3.517c-0.18-0.108-0.227-0.363-0.105-0.571l0,0
	c0.122-0.207,0.367-0.288,0.547-0.18l5.866,3.517C11.979,17.02,12.025,17.273,11.904,17.481L11.904,17.481z"/>
</svg>
