<?xml version="1.0" encoding="utf-8"?>
<!-- Generator: Adobe Illustrator 16.0.0, SVG Export Plug-In . SVG Version: 6.00 Build 0)  -->
<!DOCTYPE svg PUBLIC "-//W3C//DTD SVG 1.1//EN" "http://www.w3.org/Graphics/SVG/1.1/DTD/svg11.dtd">
<svg version="1.1" xmlns="http://www.w3.org/2000/svg" xmlns:xlink="http://www.w3.org/1999/xlink" x="0px" y="0px" width="140px"
	 height="170px" viewBox="0 0 140 170" enable-background="new 0 0 140 170" xml:space="preserve">
<g id="图层_8">
	<path fill="#BCDBEE" d="M103.522,121.82c-4.829,1.622-9.716,2.557-14.55,2.865l-0.07,0.038l22.928,40.878l19.718-64.059
		l-0.479,0.26C124.476,110.786,115.04,117.953,103.522,121.82z"/>
</g>
<g id="图层_9">
	<path fill="#BCDBEE" d="M34.409,89.052c-2.26-6.731-3.04-13.614-2.521-20.318L4.521,129.715l45.124-18.023l-0.002-0.006
		C42.81,105.801,37.456,98.127,34.409,89.052z"/>
</g>
<g id="图层_4" display="none">
	<circle display="inline" fill="#FFFFFF" stroke="#231815" stroke-miterlimit="10" cx="90.241" cy="49.055" r="105.667"/>
</g>
<g id="图层_6" display="none">
	<polygon display="inline" fill="#3095D3" points="62.003,150.936 78.736,242.638 153.703,134.205 	"/>
</g>
<g id="图层_7" display="none">
	<polygon display="inline" fill="#3095D3" points="-1.427,101.448 -6.853,8.391 -94.483,106.871 	"/>
</g>
<g id="图层_5" display="none">
	<path display="inline" fill="#3095D3" d="M84.678,103.626c0.068,0.033,0.127,0.075,0.193,0.109
		c0.979-1.551,2.437-2.821,4.348-3.445c0.629-0.205,1.262-0.388,1.893-0.585c-1.816-1.027-3.575-2.104-5.239-3.076
		c-0.826-0.482-1.646-0.975-2.469-1.464c-2.466,0.069-4.924,0.102-7.363,0.103c0.109,0.164,0.221,0.328,0.329,0.493
		C79.279,98.25,82.085,100.847,84.678,103.626z"/>
	<path display="inline" fill="#3095D3" d="M137.691-35.492c7.666,5.456,14.927,11.444,20.891,18.691
		c4.67,4.478,9.128,9.195,13.379,14.099c1.19,0.645,2.243,1.734,3.019,3.359c0.067,0.141,0.128,0.283,0.195,0.424
		c1.748,2.102,3.472,4.225,5.152,6.378c4.399,5.635,7.897,11.506,10.395,17.795l-10.194-89.958L95.43-55.059
		c6.557,2.284,12.886,5.356,19.192,8.354C122.941-44.633,130.703-40.466,137.691-35.492z"/>
	<path display="inline" fill="#3095D3" d="M91.318-8.211c-1.951,0.074-3.87,0.105-5.701,0.132c2.436,1.614,4.848,3.267,7.256,4.926
		C92.399-4.85,91.89-6.539,91.318-8.211z"/>
	<path display="inline" fill="#3095D3" d="M110.802,1.81c-0.595-0.686-1.201-1.366-1.808-2.046
		c-0.771,2.286-2.605,3.966-4.768,4.838c1.315,0.879,2.629,1.762,3.955,2.614c4.473,2.875,8.877,5.869,13.36,8.731
		C118.239,11.023,114.676,6.274,110.802,1.81z"/>
</g>
<g id="图层_10">
	<path fill="#BCDBEE" d="M129.566,37.469L113.012,2.4L75.944,19.52C96.389,15.13,117.022,22.423,129.566,37.469z"/>
</g>
<g id="图层_3">
	
		<ellipse transform="matrix(0.948 -0.3183 0.3183 0.948 -18.0093 31.164)" fill="none" stroke="#BCDBEE" stroke-width="13" stroke-miterlimit="10" cx="86.352" cy="70.688" rx="38.239" ry="36.834"/>
</g>
<g id="图层_2">
	
		<ellipse transform="matrix(0.948 -0.3183 0.3183 0.948 -18.1443 31.2118)" fill="none" stroke="#BCDBEE" stroke-width="13" stroke-miterlimit="10" cx="86.436" cy="71.127" rx="16.961" ry="16.337"/>
</g>
</svg>
